<?xml version="1.0" encoding="UTF-8" standalone="no"?>
<!-- Created with Inkscape (http://www.inkscape.org/) -->

<svg
   width="215.20598mm"
   height="215.1843mm"
   viewBox="0 0 215.20598 215.1843"
   version="1.1"
   id="svg1"
   xml:space="preserve"
   xmlns:xlink="http://www.w3.org/1999/xlink"
   xmlns="http://www.w3.org/2000/svg"
   xmlns:svg="http://www.w3.org/2000/svg"><defs
     id="defs1"><linearGradient
       id="linearGradient3-1"><stop
         style="stop-color:#f60000;stop-opacity:1;"
         offset="0"
         id="stop3" /><stop
         style="stop-color:#ffd500;stop-opacity:1;"
         offset="0.16"
         id="stop7" /><stop
         style="stop-color:#00fa0a;stop-opacity:1;"
         offset="0.32700136"
         id="stop8" /><stop
         style="stop-color:#00feff;stop-opacity:1;"
         offset="0.51424694"
         id="stop9" /><stop
         style="stop-color:#000aff;stop-opacity:1;"
         offset="0.68656719"
         id="stop10" /><stop
         style="stop-color:#bf00ff;stop-opacity:1;"
         offset="0.86295795"
         id="stop11" /><stop
         style="stop-color:#ff0000;stop-opacity:1;"
         offset="1"
         id="stop4" /></linearGradient><linearGradient
       id="linearGradient1"><stop
         style="stop-color:#0047ff;stop-opacity:1;"
         offset="0"
         id="stop1" /><stop
         style="stop-color:#5800ff;stop-opacity:1;"
         offset="1"
         id="stop2" /></linearGradient><linearGradient
       xlink:href="#linearGradient1"
       id="linearGradient2"
       x1="29.406809"
       y1="163.95218"
       x2="87.0886"
       y2="105.92404"
       gradientUnits="userSpaceOnUse"
       gradientTransform="matrix(2.2165102,0,0,2.2165102,205.39083,-125.78394)" /><linearGradient
       xlink:href="#linearGradient3-1"
       id="linearGradient13"
       x1="253.54111"
       y1="208.68106"
       x2="438.03854"
       y2="242.85542"
       gradientUnits="userSpaceOnUse" /></defs><g
     id="layer1"
     transform="translate(-223.29438,-33.590199)"><rect
       style="fill:url(#linearGradient2);fill-opacity:1;stroke:none;stroke-width:8.86604;stroke-linecap:square;stroke-linejoin:round;stroke-miterlimit:0;stroke-dashoffset:1.38029;paint-order:fill markers stroke"
       id="rect1"
       width="127.75214"
       height="127.75214"
       x="269.08597"
       y="109.81557"
       ry="29.509333" /><path
       id="rect5"
       style="fill:url(#linearGradient13);fill-opacity:1;stroke:none;stroke-width:3.98068;stroke-linecap:square;stroke-linejoin:round;stroke-miterlimit:0;stroke-dashoffset:1.38029;stroke-opacity:1;paint-order:fill markers stroke"
       d="m 438.50037,191.96658 -39.22242,-23.37894 -74.5231,42.2522 -71.21374,-40.17687 46.86691,78.11151 h 123.31547 c 8.18635,0 14.77688,-6.59052 14.77688,-14.77688 z" /><path
       id="path9"
       style="fill:#ffffff;fill-opacity:1;stroke:none;stroke-width:3.98068;stroke-linecap:square;stroke-linejoin:round;stroke-miterlimit:0;stroke-dashoffset:1.38029;stroke-opacity:1;paint-order:fill markers stroke"
       d="m 238.07126,33.590198 c -8.18636,0 -14.77688,6.590522 -14.77688,14.776876 V 233.9976 c 0,8.18636 6.59052,14.77688 14.77688,14.77688 h 62.33676 l -46.86691,-78.11151 71.21374,40.17687 74.5231,-42.2522 39.22242,23.37894 V 48.367074 c 0,-8.186354 -6.59053,-14.776876 -14.77688,-14.776876 z" /><g
       style="fill:none;stroke:currentColor;stroke-width:1.99988;stroke-linecap:round;stroke-linejoin:miter;stroke-dasharray:none"
       id="g16"
       transform="matrix(6.9649896,0,0,6.9649896,228.71337,54.517271)"><g
         style="fill:currentColor;stroke:#000000;stroke-width:0.11997;stroke-dasharray:none;stroke-opacity:1"
         id="g17"
         transform="matrix(1.0964105,0,0,1.0964105,0.89317027,-2.5393704)"><path
           d="m 12,1 9.5,5.5 v 11 L 12,23 2.5,17.5 V 6.5 Z M 3.9586975,6.7283918 12.40934,11.125753 19.917883,6.5524924 12.075447,1.9716607 Z m -0.4050651,0.8316006 -0.045215,9.5849516 8.2515166,4.576272 -0.04367,-9.912041 z M 12.700661,21.50435 20.731089,17.11294 20.743236,6.9955495 12.727525,11.944554 Z"
           id="path1"
           style="stroke:#000000;stroke-width:0.11997;stroke-dasharray:none;stroke-opacity:1" /></g></g></g></svg>
