<?xml version="1.0" encoding="UTF-8" standalone="no"?>
<svg
   t="1769483927448"
   class="icon"
   viewBox="0 0 593.75 616.01355"
   version="1.1"
   p-id="5462"
   width="115.9668"
   height="120.31515"
   id="svg1"
   sodipodi:docname="firstPerson.svg"
   xmlns:inkscape="http://www.inkscape.org/namespaces/inkscape"
   xmlns:sodipodi="http://sodipodi.sourceforge.net/DTD/sodipodi-0.dtd"
   xmlns="http://www.w3.org/2000/svg"
   xmlns:svg="http://www.w3.org/2000/svg">
  <defs
     id="defs1" />
  <sodipodi:namedview
     id="namedview1"
     pagecolor="#ffffff"
     bordercolor="#666666"
     borderopacity="1.0"
     inkscape:showpageshadow="2"
     inkscape:pageopacity="0.0"
     inkscape:pagecheckerboard="0"
     inkscape:deskcolor="#d1d1d1" />
  <path
     d="m 431.82,361.876 -12.142,57.438 a 273.746,273.746 0 0 1 89.87,33.71 c 15.386,9.974 24.828,20.766 24.828,28.848 0,24.812 -83.668,74.152 -237.5,74.152 -153.834,0 -237.5,-48.806 -237.5,-74.152 0,-16.18 36.974,-46.378 119.558,-63.368 L 166.792,360.258 C 60.726,382.1 0,426.06 0,481.872 c 0,41.8 34.274,76.586 97.16,101.39 A 567.366,567.366 0 0 0 296.876,615.89 555.94,555.94 0 0 0 496.59,583.262 c 62.886,-24.536 97.16,-60.672 97.16,-101.39 0,-54.202 -59.108,-98.154 -161.93,-119.996 z m -236.424,-38.29 h 22.398 l 4.588,173.116 c 3.866,18.828 21.018,31.944 40.212,30.74 h 70.166 c 19.364,1.36 36.76,-11.762 40.754,-30.74 l 4.318,-172.848 h 21.324 c 10.338,0.616 19.252,-7.2 19.972,-17.53 a 3.51,3.51 0 0 0 0,-1.618 L 413.19,184.708 c -4.126,-18.83 -21.522,-31.72 -40.752,-30.2 H 221.03 c -18.984,-1.388 -36.106,11.364 -40.21,29.934 l -5.938,119.454 a 15.892,15.892 0 0 0 4.86,13.752 22.404,22.404 0 0 0 15.654,5.938 z M 296.696,149.93 C 338.03,149.878 371.524,116.382 371.568,75.058 371.62,33.726 338.208,0.148 296.876,0 255.328,0 221.64,33.68 221.64,75.236 c 0.148,41.332 33.724,74.746 75.056,74.694 z"
     fill="#ffffff"
     p-id="5463"
     id="path1" />
</svg>
