<?xml version="1.0" standalone="no"?><!DOCTYPE svg PUBLIC "-//W3C//DTD SVG 1.1//EN" "http://www.w3.org/Graphics/SVG/1.1/DTD/svg11.dtd"><svg t="1768572592694" class="icon" viewBox="0 0 1024 1024" version="1.1" xmlns="http://www.w3.org/2000/svg" p-id="1598" xmlns:xlink="http://www.w3.org/1999/xlink" width="200" height="200"><path d="M120.470588 146.823529c0-15.510588 13.251765-27.407059 28.280471-26.292705l3.252706 0.451764L854.738824 261.541647a26.352941 26.352941 0 0 1 20.961882 22.467765l0.210823 3.373176v421.647059c0 11.444706-7.318588 21.383529-17.889882 24.967529l-3.312941 0.873412-702.704941 140.559059a26.352941 26.352941 0 0 1-31.322353-22.588235L120.470588 849.618824V146.823529z m228.382118 498.176L173.176471 662.588235v154.864941l175.706353-35.147294v-137.276235z m245.940706-24.606117l-193.234824 19.335529v132.005647l193.234824-38.640941V620.423529z m228.412235-22.829177l-175.706353 17.558589v107.429647l175.706353-35.147295v-89.840941z m-650.059294-210.823529v222.870588l175.706353-17.588706v-187.693176l-175.706353-17.588706z m228.412235 22.889412v177.152l193.234824-19.33553v-138.541176l-193.234824-19.275294z m245.940706 24.545882v128l175.706353-17.588706V451.764706l-175.706353-17.588706z m0-160.346353v107.399529l175.706353 17.558589v-89.840941L647.529412 273.829647z m-245.940706-49.212235v132.005647l193.234824 19.335529v-112.64l-193.234824-38.701176zM173.176471 178.959059v154.834823l175.706353 17.558589V214.076235L173.176471 178.959059z" fill="#FFFFFF" p-id="1599"></path></svg>