<?xml version="1.0" standalone="no"?><!DOCTYPE svg PUBLIC "-//W3C//DTD SVG 1.1//EN" "http://www.w3.org/Graphics/SVG/1.1/DTD/svg11.dtd"><svg t="1768806875522" class="icon" viewBox="0 0 1024 1024" version="1.1" xmlns="http://www.w3.org/2000/svg" p-id="7415" xmlns:xlink="http://www.w3.org/1999/xlink" width="200" height="200"><path d="M368.64 720.213333h112.64v68.266667h-112.64zM221.866667 720.213333h112.64v68.266667H221.866667zM184.32 720.213333v68.266667H98.986667v-85.333333h68.266666v17.066666zM98.986667 587.093333h68.266666v88.746667h-68.266666zM98.986667 467.626667h68.266666v88.746666h-68.266666zM98.986667 348.16h68.266666v88.746667h-68.266666z" p-id="7416" fill="#3370ff"></path><path d="M184.32 235.52v68.266667h-17.066667v17.066666h-68.266666V235.52z" p-id="7417" fill="#3370ff"></path><path d="M221.866667 235.52h112.64v68.266667H221.866667zM368.64 235.52h112.64v68.266667h-112.64z" p-id="7418" fill="#3370ff"></path><path d="M604.16 235.52v-102.4c0-17.066667-13.653333-34.133333-34.133333-34.133333-17.066667 0-34.133333 17.066667-34.133334 34.133333v102.4h-17.066666v68.266667h17.066666v419.84h-17.066666v68.266666h17.066666v102.4c0 17.066667 17.066667 34.133333 34.133334 34.133334 20.48 0 34.133333-17.066667 34.133333-34.133334v-102.4h320.853333V235.52h-320.853333z m252.586667 484.693333h-252.586667V303.786667h252.586667v416.426666z" p-id="7419" fill="#3370ff"></path></svg>